/* XPM */
static char *bb[] = {
/* columns rows colors chars-per-pixel */
"45 45 14 1",
"  c black",
". c gray8",
"X c gray15",
"o c gray19",
"O c #3C3C3C",
"+ c #676767",
"@ c #6D6D6D",
"# c gray43",
"$ c gray69",
"% c #BBBBBB",
"& c #BCBCBC",
"* c #CBCBCB",
"= c gray100",
"- c None",
/* pixels */
"---------------------------------------------",
"---------------------------------------------",
"---------------------------------------------",
"---------------------------------------------",
"---------------------------------------------",
"---------------------   ---------------------",
"--------------------     --------------------",
"-------------------       -------------------",
"-------------------       -------------------",
"--------------------     --------------------",
"--------------------     --------------------",
"-------------------       -------------------",
"-----------------           -----------------",
"----------------             ----------------",
"---------------       X       ---------------",
"---------------      o=o      ---------------",
"--------------       O=O       --------------",
"--------------     +%*=*%+     --------------",
"-------------      +%*=*%+      -------------",
"-------------        O=O        -------------",
"-------------        o=o        -------------",
"-------------         X         -------------",
"-------------                   -------------",
"--------------                 --------------",
"--------------                 --------------",
"--------------- .$%%%%%%%%%$. ---------------",
"----------------.$%%%%%%%%%$.----------------",
"---------------               ---------------",
"---------------               ---------------",
"--------------#&%%%%%%%%%%%%%&#--------------",
"--------------@%%%%%%%%%%%%%%%@--------------",
"--------------                 --------------",
"--------------                ---------------",
"----------------             ----------------",
"------------------         ------------------",
"--------                             --------",
"------                                -------",
"------                                 ------",
"-----                 -                ------",
"------- ----------------------------- -------",
"---------------------------------------------",
"---------------------------------------------",
"---------------------------------------------",
"---------------------------------------------",
"---------------------------------------------"
};
