/* XPM */
static char *rook[] = {
/* columns rows colors chars-per-pixel */
"45 45 154 2",
"   c black",
".  c #010101",
"X  c #020202",
"o  c gray1",
"O  c #040404",
"+  c gray2",
"@  c #060606",
"#  c #070707",
"$  c gray3",
"%  c #090909",
"&  c gray4",
"*  c #0B0B0B",
"=  c #0C0C0C",
"-  c gray5",
";  c #111111",
":  c gray7",
">  c #131313",
",  c #151515",
"<  c #161616",
"1  c #181818",
"2  c gray10",
"3  c #1D1D1D",
"4  c #1E1E1E",
"5  c gray12",
"6  c #222222",
"7  c gray14",
"8  c #282828",
"9  c #2C2C2C",
"0  c #2D2D2D",
"q  c gray18",
"w  c gray19",
"e  c #313131",
"r  c #343434",
"t  c gray21",
"y  c #373737",
"u  c #393939",
"i  c #3A3A3A",
"p  c gray24",
"a  c #3F3F3F",
"s  c gray25",
"d  c gray26",
"f  c #434343",
"g  c #444444",
"h  c gray27",
"j  c gray28",
"k  c #494949",
"l  c gray29",
"z  c #4B4B4B",
"x  c gray30",
"c  c #4E4E4E",
"v  c gray32",
"b  c #535353",
"n  c #555555",
"m  c #565656",
"M  c gray34",
"N  c #5A5A5A",
"B  c #626262",
"V  c gray39",
"C  c #646464",
"Z  c DimGray",
"A  c #6D6D6D",
"S  c gray43",
"D  c gray44",
"F  c #727272",
"G  c gray45",
"H  c #747474",
"J  c #767676",
"K  c #777777",
"L  c gray47",
"P  c gray48",
"I  c gray49",
"U  c #7E7E7E",
"Y  c #818181",
"T  c #838383",
"R  c #848484",
"E  c gray53",
"W  c #888888",
"Q  c gray55",
"!  c #8D8D8D",
"~  c gray56",
"^  c #909090",
"/  c gray57",
"(  c #929292",
")  c #939393",
"_  c gray59",
"`  c #979797",
"'  c #989898",
"]  c gray60",
"[  c #9A9A9A",
"{  c #9B9B9B",
"}  c #9D9D9D",
"|  c #A0A0A0",
" . c #A2A2A2",
".. c gray64",
"X. c #A5A5A5",
"o. c gray65",
"O. c #A7A7A7",
"+. c #A9A9A9",
"@. c #AAAAAA",
"#. c gray68",
"$. c gray69",
"%. c #B1B1B1",
"&. c gray70",
"*. c #B4B4B4",
"=. c gray71",
"-. c #B6B6B6",
";. c gray72",
":. c #BBBBBB",
">. c gray75",
",. c gray76",
"<. c #C3C3C3",
"1. c #C5C5C5",
"2. c #C6C6C6",
"3. c #C8C8C8",
"4. c gray79",
"5. c #CACACA",
"6. c #CBCBCB",
"7. c gray80",
"8. c #CDCDCD",
"9. c #CECECE",
"0. c #D0D0D0",
"q. c gray82",
"w. c #D2D2D2",
"e. c LightGray",
"r. c #D5D5D5",
"t. c gray84",
"y. c #D7D7D7",
"u. c #D8D8D8",
"i. c gainsboro",
"p. c #DDDDDD",
"a. c #DFDFDF",
"s. c #E4E4E4",
"d. c gray90",
"f. c #E6E6E6",
"g. c gray91",
"h. c #E9E9E9",
"j. c gray92",
"k. c #ECECEC",
"l. c gray93",
"z. c #EEEEEE",
"x. c gray94",
"c. c gray95",
"v. c #F4F4F4",
"b. c gray96",
"n. c #F6F6F6",
"m. c gray97",
"M. c #F8F8F8",
"N. c gray98",
"B. c #FBFBFB",
"V. c gray99",
"C. c #FDFDFD",
"Z. c #FEFEFE",
"A. c gray100",
"S. c None",
/* pixels */
"S.S.S.S.S.S.S.S.S.S.S.S.S.S.S.S.S.S.S.S.S.S.S.S.S.S.S.S.S.S.S.S.S.S.S.S.S.S.S.S.S.S.S.S.S.",
"S.S.S.S.S.S.S.S.S.S.S.S.S.S.S.S.S.S.S.S.S.S.S.S.S.S.S.S.S.S.S.S.S.S.S.S.S.S.S.S.S.S.S.S.S.",
"S.S.S.S.S.S.S.S.S.S.S.S.S.S.S.S.S.S.S.S.S.S.S.S.S.S.S.S.S.S.S.S.S.S.S.S.S.S.S.S.S.S.S.S.S.",
"S.S.S.S.S.S.S.S.S.S.S.S.S.S.S.S.S.S.S.S.S.S.S.S.S.S.S.S.S.S.S.S.S.S.S.S.S.S.S.S.S.S.S.S.S.",
"S.S.S.S.S.S.S.S.S.S.S.S.S.S.S.S.S.S.S.S.S.S.S.S.S.S.S.S.S.S.S.S.S.S.S.S.S.S.S.S.S.S.S.S.S.",
"S.S.S.S.S.S.S.S.S.S.S.S.S.S.S.S.S.S.S.S.S.S.  S.S.S.S.S.S.S.S.S.S.S.S.S.S.S.S.S.S.S.S.S.S.",
"S.S.S.S.S.S.S.S.S.S.S.S.S.S.S.S.S.S.S.S.S.S.  S.S.S.S.S.S.S.S.S.S.S.S.S.S.S.S.S.S.S.S.S.S.",
"S.S.S.S.S.S.S.S.S.S.S.S.S.S.S.S.S.S.S.S.          S.S.S.S.S.S.S.S.S.S.S.S.S.S.S.S.S.S.S.S.",
"S.S.S.S.S.S.S.S.S.S.S.S.S.S.S.S.S.S.S.S.          S.S.S.S.S.S.S.S.S.S.S.S.S.S.S.S.S.S.S.S.",
"S.S.S.S.S.S.S.S.S.S.S.S.S.S.S.S.S.S.S.S.S.S.  S.S.S.S.S.S.S.S.S.S.S.S.S.S.S.S.S.S.S.S.S.S.",
"S.S.S.S.S.S.S.S.S.S.S.S.S.S.S.S.S.S.S.S.S.S.  S.S.S.S.S.S.S.S.S.S.S.S.S.S.S.S.S.S.S.S.S.S.",
"S.S.S.S.S.S.S.S.S.S.S.S.S.S.S.S.S.S.S.S.S.      S.S.S.S.S.S.S.S.S.S.S.S.S.S.S.S.S.S.S.S.S.",
"S.S.S.S.S.S.S.S.S.S.S.S.S.S.S.S.S.S.S.S.          S.S.S.S.S.S.S.S.S.S.S.S.S.S.S.S.S.S.S.S.",
"S.S.S.S.S.S.S.S.S.S.S.S.S.S.S.S.S.S.S.              S.S.S.S.S.S.S.S.S.S.S.S.S.S.S.S.S.S.S.",
"S.S.S.S.S.S.S.S.S.S.S.S.S.S.S.S.S.S.S.              S.S.S.S.S.S.S.S.S.S.S.S.S.S.S.S.S.S.S.",
"S.S.S.S.S.S.S.S.S.S.        S.S.S.S.S.              S.S.S.S.        S.S.S.S.S.S.S.S.S.S.S.",
"S.S.S.S.S.S.S.S.X k ' ;.=.) b %   S.S.                    4 A  .:.$.I 8   S.S.S.S.S.S.S.S.",
"S.S.S.S.S.S.S.9 w.A.g.5.9.k.A.j.Y ,                   0 o.V.V.i.7.0.m.Z.X., S.S.S.S.S.S.S.",
"S.S.S.S.S.S.5 h.d.j         q _ n.v.C             + ^ Z.s.D ,       & H M.q., S.S.S.S.S.S.",
"S.S.S.S.S.S. .b.8               1 -.A.+.&       , 1.Z.Q @               f B...S.S.S.S.S.S.",
"S.S.S.S.S.: M.)                   . F V.%.o   & 3.b.v                     ' M.; S.S.S.S.S.",
"S.S.S.S.S.i A.l                       Z A.]   +.V.c                       v A.t S.S.S.S.S.",
"S.S.S.S.S.s A.a                         T A.| A.G                         M A.w S.S.S.S.S.",
"S.S.S.S.S.2 C.G                         o 0.A.8.X                         [ k.+ S.S.S.S.S.",
"S.S.S.S.S.S.#.a.&                         { A.}                         8 N.R S.S.S.S.S.S.",
"S.S.S.S.S.S.y V.O..                       L A.L                       , y.g.> S.S.S.S.S.S.",
"S.S.S.S.S.S.S.H A. .@                   . B A.N                     2 7.b.s S.S.S.S.S.S.S.",
"S.S.S.S.S.S.S.S.P Z.9.r   % p K @.4.g.A.A.A.A.M.g.5.| L u o       d s.c.z S.S.S.S.S.S.S.S.",
"S.S.S.S.S.S.S.S.S.l d.Z.6.n.A.V.t.=._ T K K K W ` -.p.C.A.x.+.n  .Z.r.w S.S.S.S.S.S.S.S.S.",
"S.S.S.S.S.S.S.S.S.S.q A.l./ g -                       * l / h.A.A.! = S.S.S.S.S.S.S.S.S.S.",
"S.S.S.S.S.S.S.S.S.S.S.t +                                   # A -.7 S.S.S.S.S.S.S.S.S.S.S.",
"S.S.S.S.S.S.S.S.S.S.S.      = u V U ` @.&.:.:.&.@.` U V u =       S.S.S.S.S.S.S.S.S.S.S.S.",
"S.S.S.S.S.S.S.S.S.S.S.g ( u.Z.A.A.C.f.e.7.<.<.7.e.f.C.A.A.C.u.( m S.S.S.S.S.S.S.S.S.S.S.S.",
"S.S.S.S.S.S.S.S.S.S.S.A.b.$.J h 3 O                 O 3 h J %.b.A.S.S.S.S.S.S.S.S.S.S.S.S.",
"S.S.S.S.S.S.S.S.S.S.S.9 $     O 9 x S E ~ ] ] ~ E S x 9 O     $ 6 S.S.S.S.S.S.S.S.S.S.S.S.",
"S.S.S.S.S.S.S.S.S.S.S.  8 Y >.v.A.A.A.B.z.s.s.z.B.A.A.A.v.>.Y 8   S.S.S.S.S.S.S.S.S.S.S.S.",
"S.S.S.S.S.S.S.S.S.S.S.2.A.N.,.W b e ;             ; e b W ,.N.A.6.S.S.S.S.S.S.S.S.S.S.S.S.",
"S.S.S.S.S.S.S.S.S.S.S.a.S <                                 < S *.S.S.S.S.S.S.S.S.S.S.S.S.",
"S.S.S.S.S.S.S.S.S.S.S.S.S.                                    S.S.S.S.S.S.S.S.S.S.S.S.S.S.",
"S.S.S.S.S.S.S.S.S.S.S.S.S.S.S.S.                        S.S.S.S.S.S.S.S.S.S.S.S.S.S.S.S.S.",
"S.S.S.S.S.S.S.S.S.S.S.S.S.S.S.S.S.S.S.S.S.S.S.S.S.S.S.S.S.S.S.S.S.S.S.S.S.S.S.S.S.S.S.S.S.",
"S.S.S.S.S.S.S.S.S.S.S.S.S.S.S.S.S.S.S.S.S.S.S.S.S.S.S.S.S.S.S.S.S.S.S.S.S.S.S.S.S.S.S.S.S.",
"S.S.S.S.S.S.S.S.S.S.S.S.S.S.S.S.S.S.S.S.S.S.S.S.S.S.S.S.S.S.S.S.S.S.S.S.S.S.S.S.S.S.S.S.S.",
"S.S.S.S.S.S.S.S.S.S.S.S.S.S.S.S.S.S.S.S.S.S.S.S.S.S.S.S.S.S.S.S.S.S.S.S.S.S.S.S.S.S.S.S.S.",
"S.S.S.S.S.S.S.S.S.S.S.S.S.S.S.S.S.S.S.S.S.S.S.S.S.S.S.S.S.S.S.S.S.S.S.S.S.S.S.S.S.S.S.S.S."
};
