/* XPM */
static char *bp[] = {
/* columns rows colors chars-per-pixel */
"45 45 2 1",
"  c black",
". c None",
/* pixels */
".............................................",
".............................................",
".............................................",
".............................................",
".............................................",
".............................................",
".............................................",
".............................................",
".............................................",
"...................      ....................",
"..................        ...................",
"..................        ...................",
"..................        ...................",
"..................        ...................",
"..................        ...................",
"..................        ...................",
".................          ..................",
"................            .................",
"................            .................",
"...............              ................",
"...............              ................",
"...............              ................",
"...............              ................",
"................            .................",
"................            .................",
".................          ..................",
"................            .................",
"...............              ................",
"..............                ...............",
".............                  ..............",
"............                    .............",
"............                    .............",
"...........                      ............",
"...........                      ............",
"...........                      ............",
"..........                        ...........",
"..........                        ...........",
"..........                        ...........",
"..........                        ...........",
"..........                        ...........",
".............................................",
".............................................",
".............................................",
".............................................",
"............................................."
};
