/* XPM */
static char *bq[] = {
/* columns rows colors chars-per-pixel */
"45 45 74 1",
"  c black",
". c #040404",
"X c #060606",
"o c #070707",
"O c gray5",
"+ c #0E0E0E",
"@ c gray6",
"# c #111111",
"$ c #151515",
"% c gray9",
"& c #1B1B1B",
"* c gray12",
"= c #222222",
"- c #272727",
"; c #282828",
": c #2A2A2A",
"> c gray17",
", c gray18",
"< c #313131",
"1 c #323232",
"2 c gray20",
"3 c #353535",
"4 c gray21",
"5 c gray24",
"6 c #3F3F3F",
"7 c #444444",
"8 c #484848",
"9 c #494949",
"0 c #535353",
"q c #555555",
"w c #5B5B5B",
"e c #646464",
"r c #656565",
"t c gray40",
"y c #6C6C6C",
"u c #6D6D6D",
"i c #717171",
"p c #727272",
"a c gray45",
"s c #767676",
"d c #7E7E7E",
"f c #818181",
"g c gray58",
"h c #959595",
"j c gray60",
"k c #9A9A9A",
"l c #A7A7A7",
"z c #AAAAAA",
"x c #AFAFAF",
"c c #B6B6B6",
"v c #B9B9B9",
"b c #BBBBBB",
"n c #C1C1C1",
"m c gray76",
"M c #CACACA",
"N c gray80",
"B c #CDCDCD",
"V c gray83",
"C c #D5D5D5",
"Z c #D8D8D8",
"A c #DDDDDD",
"S c gray88",
"D c gray89",
"F c gray91",
"G c #E9E9E9",
"H c #ECECEC",
"J c gray93",
"K c #EEEEEE",
"L c #F1F1F1",
"P c gray97",
"I c #F8F8F8",
"U c gray98",
"Y c gray100",
"T c None",
/* pixels */
"TTTTTTTTTTTTTTTTTTTTTTTTTTTTTTTTTTTTTTTTTTTTT",
"TTTTTTTTTTTTTTTTTTTTTTTTTTTTTTTTTTTTTTTTTTTTT",
"TTTTTTTTTTTTTTTTTTTTTTTTTTTTTTTTTTTTTTTTTTTTT",
"TTTTTTTTTTTTTTTTTTTTTTTTTTTTTTTTTTTTTTTTTTTTT",
"TTTTTTTTTTTTTTTTTTTTTTTTTTTTTTTTTTTTTTTTTTTTT",
"TTTTTTTTTTTTTTTTTTTTT   TTTTTTTTTTTTTTTTTTTTT",
"TTTTTTTTTTTTT  TTTTT     TTTTTTTTTTTTTTTTTTTT",
"TTTTTTTTTTTT    TTTT     TTTT    TTTTTTTTTTTT",
"TTTTTTTTTTTT    TTTT     TTTT    TTTTTTTTTTTT",
"TTTTTTTTTTTT    TTTTT   TTTTT    TTTTTTTTTTTT",
"TTTT    TTTTT  TTTTTTT TTTTTT    TTTT    TTTT",
"TTTT    TTTTT  TTTTTTT TTTTTTT  TTTTT    TTTT",
"TTTT    TTTTTT TTTTTT   TTTTTT  TTTTT    TTTT",
"TTTT    TTTTTT  TTTTT   TTTTT   TTTTT    TTTT",
"TTTTTT  TTTTTT  TTTTT   TTTTT   TTTTT  TTTTTT",
"TTTTTTT  TTTTT   TTTT   TTTTT   TTTT  TTTTTTT",
"TTTTTTT  TTTTT   TTTT   TTTT    TTTT  TTTTTTT",
"TTTTTTT   TTTT   TTT     TTT    TTT   TTTTTTT",
"TTTTTTT   TTTT    TT     TT     TTT   TTTTTTT",
"TTTTTTT    TTT    TT     TT     TT    TTTTTTT",
"TTTTTTTT    TT    TT     TT     T    TTTTTTTT",
"TTTTTTTT    TT     T     T      T    TTTTTTTT",
"TTTTTTTT                             TTTTTTTT",
"TTTTTTTT                             TTTTTTTT",
"TTTTTTTT                             TTTTTTTT",
"TTTTTTTT                             TTTTTTTT",
"TTTTTTTT                             TTTTTTTT",
"TTTTTTTTT                           TTTTTTTTT",
"TTTTTTTTTT     X#$==<222<==$#X     TTTTTTTTTT",
"TTTTTTTTTTTixCHPGAABNnbnNBAAGPHCxsTTTTTTTTTTT",
"TTTTTTTTTTTpq;+               +;qyTTTTTTTTTTT",
"TTTTTTTTTTTT                     TTTTTTTTTTTT",
"TTTTTTTTTTTT@>9rfhjlzvbvzljhfr9>@TTTTTTTTTTTT",
"TTTTTTTTTTTwYVckdtrq07770qrtdkcVLeTTTTTTTTTTT",
"TTTTTTTTTT     O#*=:23521==%#.    TTTTTTTTTTT",
"TTTTTTTTTTylMDILFAABNmbMNCASKUJZvg6TTTTTTTTTT",
"TTTTTTTTTTaw4&o               #-8u,TTTTTTTTTT",
"TTTTTTTTTT                         TTTTTTTTTT",
"TTTTTTTTTT                         TTTTTTTTTT",
"TTTTTTTTTTTTTTTT             TTTTTTTTTTTTTTTT",
"TTTTTTTTTTTTTTTTTTTTTTTTTTTTTTTTTTTTTTTTTTTTT",
"TTTTTTTTTTTTTTTTTTTTTTTTTTTTTTTTTTTTTTTTTTTTT",
"TTTTTTTTTTTTTTTTTTTTTTTTTTTTTTTTTTTTTTTTTTTTT",
"TTTTTTTTTTTTTTTTTTTTTTTTTTTTTTTTTTTTTTTTTTTTT",
"TTTTTTTTTTTTTTTTTTTTTTTTTTTTTTTTTTTTTTTTTTTTT"
};
