/* XPM */
static char *br[] = {
/* columns rows colors chars-per-pixel */
"45 45 12 1",
"  c black",
". c #323232",
"X c #3C3C3C",
"o c gray24",
"O c #585858",
"+ c gray35",
"@ c #5A5A5A",
"# c gray36",
"$ c #777777",
"% c #888888",
"& c gray100",
"* c None",
/* pixels */
"*********************************************",
"*********************************************",
"*********************************************",
"*********************************************",
"*********************************************",
"*********************************************",
"*********************************************",
"*********************************************",
"***********    *****     *****    ***********",
"**********      ***       ***      **********",
"**********                         **********",
"**********                         **********",
"**********                         **********",
"**********.$$$$$$$$$$$$$$$$$$$$$$$.**********",
"**********X%%%%%%%%%%%%%%%%%%%%%%%o**********",
"************                     ************",
"*************+&&&&&&&&&&&&&&&&&O*************",
"*************                   *************",
"*************                   *************",
"*************                   *************",
"*************                   *************",
"*************                   *************",
"*************                   *************",
"*************                   *************",
"*************                   *************",
"*************                   *************",
"*************                   *************",
"*************                   *************",
"*************                   *************",
"*************@&&&&&&&&&&&&&&&&&@*************",
"*************                   *************",
"************O&&&&&&&&&&&&&&&&&&&O************",
"***********                       ***********",
"***********                       ***********",
"***********                       ***********",
"*********  #&&&&&&&&&&&&&&&&&&&&&#  *********",
"********                             ********",
"********                             ********",
"********                             ********",
"*********                           *********",
"*********************************************",
"*********************************************",
"*********************************************",
"*********************************************",
"*********************************************"
};
