/* XPM */
static char *wb[] = {
/* columns rows colors chars-per-pixel */
"45 45 92 1",
"  c black",
". c #010101",
"X c #020202",
"o c gray1",
"O c #040404",
"+ c gray2",
"@ c #060606",
"# c gray3",
"$ c #090909",
"% c gray4",
"& c #0B0B0B",
"* c #0C0C0C",
"= c #0E0E0E",
"- c gray6",
"; c #181818",
": c gray10",
"> c #1B1B1B",
", c #1D1D1D",
"< c #1E1E1E",
"1 c gray12",
"2 c #282828",
"3 c #343434",
"4 c #373737",
"5 c gray22",
"6 c gray23",
"7 c #3C3C3C",
"8 c gray24",
"9 c #3F3F3F",
"0 c gray25",
"q c #414141",
"w c gray26",
"e c #444444",
"r c #4E4E4E",
"t c gray31",
"y c #515151",
"u c #535353",
"i c #555555",
"p c gray35",
"a c gray36",
"s c gray37",
"d c #5F5F5F",
"f c gray40",
"g c DimGray",
"h c #6A6A6A",
"j c gray46",
"k c #767676",
"l c #777777",
"z c gray47",
"x c #797979",
"c c #7B7B7B",
"v c #7C7C7C",
"b c gray51",
"n c gray53",
"m c #898989",
"M c gray54",
"N c #989898",
"B c #9F9F9F",
"V c #A0A0A0",
"C c gray64",
"Z c #A5A5A5",
"A c gray65",
"S c #AAAAAA",
"D c #AEAEAE",
"F c #AFAFAF",
"G c #B2B2B2",
"H c gray70",
"J c #B4B4B4",
"K c gray71",
"L c #B6B6B6",
"P c #BBBBBB",
"I c gray",
"U c gray75",
"Y c #C3C3C3",
"T c gray77",
"R c gray78",
"E c #CACACA",
"W c gray81",
"Q c #D0D0D0",
"! c #D7D7D7",
"~ c gray85",
"^ c gray89",
"/ c #E4E4E4",
"( c gray90",
") c #EAEAEA",
"_ c gray93",
"` c gray96",
"' c gray97",
"] c #FBFBFB",
"[ c #FDFDFD",
"{ c #FEFEFE",
"} c gray100",
"| c None",
/* pixels */
"|||||||||||||||||||||||||||||||||||||||||||||",
"|||||||||||||||||||||||||||||||||||||||||||||",
"|||||||||||||||||||||||||||||||||||||||||||||",
"|||||||||||||||||||||||||||||||||||||||||||||",
"|||||||||||||||||||||||||||||||||||||||||||||",
"|||||||||||||||||||||X X|||||||||||||||||||||",
"|||||||||||||||||||| dHd ||||||||||||||||||||",
"||||||||||||||||||| 1[}[1 |||||||||||||||||||",
"||||||||||||||||||| 1[}[1 |||||||||||||||||||",
"|||||||||||||||||||| sHa ||||||||||||||||||||",
"|||||||||||||||||||| X X ||||||||||||||||||||",
"|||||||||||||||||||o.9s9.o|||||||||||||||||||",
"|||||||||||||||||  7E}}}R6  |||||||||||||||||",
"||||||||||||||||ooM{}}}}}[mXo||||||||||||||||",
"|||||||||||||||oOF}}}}~}}}}DOo|||||||||||||||",
"||||||||||||||| V}}}}W W}}}}B |||||||||||||||",
"||||||||||||||op}}}}}Y Y}}}}}po||||||||||||||",
"||||||||||||||O(}}}Ne3 3eN}}}^o||||||||||||||",
"|||||||||||||ow}}}}Ne3 3eN}}}}qo|||||||||||||",
"|||||||||||||Xz}}}}}}Y Y}}}}}}lX|||||||||||||",
"||||||||||||| n}}}}}}W W}}}}}}n |||||||||||||",
"|||||||||||||Xk}}}}}}}~}}}}}}}jX|||||||||||||",
"|||||||||||||o5}}}}}}}}}}}}}}}4o|||||||||||||",
"|||||||||||||| J}}}}}}}}}}}}}G ||||||||||||||",
"||||||||||||||O&L}}}}}}}}}}}K%O||||||||||||||",
"|||||||||||||||O  9eeeeeee9o O|||||||||||||||",
"||||||||||||||||  0eeeeeee9  ||||||||||||||||",
"|||||||||||||||o2)}}}}}}}}})2o|||||||||||||||",
"|||||||||||||||oQ}}}}}}}}}}}Qo|||||||||||||||",
"|||||||||||||| *eeeeeeeeeeeee* ||||||||||||||",
"||||||||||||||O>eeeeeeeeeeeee>O||||||||||||||",
"||||||||||||||+<`}}}}}}}}}}}`<+||||||||||||||",
"|||||||||||||| .>xP/}}}}}/Px:.|||||||||||||||",
"||||||||||||||||Xo  O=,=O  oX||||||||||||||||",
"||||||||||||||||||  .   .  ||||||||||||||||||",
"|||||||| o         -uA]Zy-         o ||||||||",
"||||||  ;ibNSSSKIQ_}}'U'}}_WIJSSSNbr#X|||||||",
"|||||| c!Ccgfffffffs8# $8dfffffffhvCTt ||||||",
"|||||  o  .o@ooooX++. | .+OXoooo@o.  X ||||||",
"||||||| ||||||||||||||||||||||||||||| |||||||",
"|||||||||||||||||||||||||||||||||||||||||||||",
"|||||||||||||||||||||||||||||||||||||||||||||",
"|||||||||||||||||||||||||||||||||||||||||||||",
"|||||||||||||||||||||||||||||||||||||||||||||",
"|||||||||||||||||||||||||||||||||||||||||||||"
};
