/* XPM */
static char *wk[] = {
/* columns rows colors chars-per-pixel */
"45 45 131 2",
"   c black",
".  c #010101",
"X  c #020202",
"o  c gray1",
"O  c #040404",
"+  c gray2",
"@  c #060606",
"#  c gray3",
"$  c #090909",
"%  c #0B0B0B",
"&  c #0C0C0C",
"*  c #111111",
"=  c gray7",
"-  c gray8",
";  c #161616",
":  c gray9",
">  c #181818",
",  c #191919",
"<  c gray10",
"1  c #1B1B1B",
"2  c gray11",
"3  c gray13",
"4  c #222222",
"5  c gray15",
"6  c #272727",
"7  c #282828",
"8  c gray16",
"9  c #2C2C2C",
"0  c #2D2D2D",
"q  c gray19",
"w  c gray20",
"e  c #343434",
"r  c #353535",
"t  c gray21",
"y  c #3C3C3C",
"u  c gray24",
"i  c #3F3F3F",
"p  c gray25",
"a  c #434343",
"s  c #444444",
"d  c gray28",
"f  c #484848",
"g  c gray29",
"h  c #4C4C4C",
"j  c #4E4E4E",
"k  c gray31",
"l  c #505050",
"z  c #515151",
"x  c #535353",
"c  c gray33",
"v  c #555555",
"b  c #565656",
"n  c gray34",
"m  c #5B5B5B",
"M  c gray36",
"N  c #5F5F5F",
"B  c #656565",
"V  c gray40",
"C  c #686868",
"Z  c DimGray",
"A  c #6C6C6C",
"S  c #6D6D6D",
"D  c gray43",
"F  c gray44",
"G  c gray45",
"H  c #747474",
"J  c gray46",
"K  c #777777",
"L  c gray47",
"P  c #797979",
"I  c #7B7B7B",
"U  c #7E7E7E",
"Y  c #818181",
"T  c #848484",
"R  c gray53",
"E  c #888888",
"W  c #898989",
"Q  c gray56",
"!  c gray57",
"~  c gray59",
"^  c #9A9A9A",
"/  c #9B9B9B",
"(  c gray61",
")  c #9F9F9F",
"_  c gray64",
"`  c #A4A4A4",
"'  c gray65",
"]  c #ACACAC",
"[  c #B1B1B1",
"{  c #B2B2B2",
"}  c gray71",
"|  c #B9B9B9",
" . c gray73",
".. c #BBBBBB",
"X. c gray74",
"o. c gray75",
"O. c gray76",
"+. c #C3C3C3",
"@. c #C5C5C5",
"#. c #C6C6C6",
"$. c #CACACA",
"%. c #CDCDCD",
"&. c #CECECE",
"*. c gray81",
"=. c gray82",
"-. c #D2D2D2",
";. c LightGray",
":. c #D8D8D8",
">. c gray85",
",. c gray88",
"<. c #E2E2E2",
"1. c gray89",
"2. c #E6E6E6",
"3. c #E9E9E9",
"4. c #EAEAEA",
"5. c #ECECEC",
"6. c gray93",
"7. c #EEEEEE",
"8. c gray95",
"9. c #F3F3F3",
"0. c #F4F4F4",
"q. c gray96",
"w. c #F6F6F6",
"e. c #F8F8F8",
"r. c #F9F9F9",
"t. c gray98",
"y. c #FBFBFB",
"u. c gray99",
"i. c #FEFEFE",
"p. c gray100",
"a. c None",
/* pixels */
"a.a.a.a.a.a.a.a.a.a.a.a.a.a.a.a.a.a.a.a.a.a.a.a.a.a.a.a.a.a.a.a.a.a.a.a.a.a.a.a.a.a.a.a.a.",
"a.a.a.a.a.a.a.a.a.a.a.a.a.a.a.a.a.a.a.a.a.a.a.a.a.a.a.a.a.a.a.a.a.a.a.a.a.a.a.a.a.a.a.a.a.",
"a.a.a.a.a.a.a.a.a.a.a.a.a.a.a.a.a.a.a.a.a.a.a.a.a.a.a.a.a.a.a.a.a.a.a.a.a.a.a.a.a.a.a.a.a.",
"a.a.a.a.a.a.a.a.a.a.a.a.a.a.a.a.a.a.a.a.a.a.a.a.a.a.a.a.a.a.a.a.a.a.a.a.a.a.a.a.a.a.a.a.a.",
"a.a.a.a.a.a.a.a.a.a.a.a.a.a.a.a.a.a.a.a.a.a.a.a.a.a.a.a.a.a.a.a.a.a.a.a.a.a.a.a.a.a.a.a.a.",
"a.a.a.a.a.a.a.a.a.a.a.a.a.a.a.a.a.a.a.a.a.a.  a.a.a.a.a.a.a.a.a.a.a.a.a.a.a.a.a.a.a.a.a.a.",
"a.a.a.a.a.a.a.a.a.a.a.a.a.a.a.a.a.a.a.a.a.a.  a.a.a.a.a.a.a.a.a.a.a.a.a.a.a.a.a.a.a.a.a.a.",
"a.a.a.a.a.a.a.a.a.a.a.a.a.a.a.a.a.a.a.a.          a.a.a.a.a.a.a.a.a.a.a.a.a.a.a.a.a.a.a.a.",
"a.a.a.a.a.a.a.a.a.a.a.a.a.a.a.a.a.a.a.a.          a.a.a.a.a.a.a.a.a.a.a.a.a.a.a.a.a.a.a.a.",
"a.a.a.a.a.a.a.a.a.a.a.a.a.a.a.a.a.a.a.a.a.a.  a.a.a.a.a.a.a.a.a.a.a.a.a.a.a.a.a.a.a.a.a.a.",
"a.a.a.a.a.a.a.a.a.a.a.a.a.a.a.a.a.a.a.a.a.a.  a.a.a.a.a.a.a.a.a.a.a.a.a.a.a.a.a.a.a.a.a.a.",
"a.a.a.a.a.a.a.a.a.a.a.a.a.a.a.a.a.a.a.a.a.      a.a.a.a.a.a.a.a.a.a.a.a.a.a.a.a.a.a.a.a.a.",
"a.a.a.a.a.a.a.a.a.a.a.a.a.a.a.a.a.a.a.a.o # e # o a.a.a.a.a.a.a.a.a.a.a.a.a.a.a.a.a.a.a.a.",
"a.a.a.a.a.a.a.a.a.a.a.a.a.a.a.a.a.a.a.o = =.p.=.= o a.a.a.a.a.a.a.a.a.a.a.a.a.a.a.a.a.a.a.",
"a.a.a.a.a.a.a.a.a.a.a.a.a.a.a.a.a.a.a.  ' p.p.p.'   a.a.a.a.a.a.a.a.a.a.a.a.a.a.a.a.a.a.a.",
"a.a.a.a.a.a.a.a.a.a.  o o   a.a.a.a.a.o q.p.p.p.q.o a.a.a.a.  . X   a.a.a.a.a.a.a.a.a.a.a.",
"a.a.a.a.a.a.a.a.O   < d f 7 X o   a.a.. y.p.p.p.y..     o   , a h q o X   a.a.a.a.a.a.a.a.",
"a.a.a.a.a.a.a.o >  .p.p.p.p.2.T = X     ,.p.p.p.,.  o o A >.p.p.p.p.6.J X o a.a.a.a.a.a.a.",
"a.a.a.a.a.a.o = 1.p.p.p.p.p.p.p.4.k   . / p.p.p.G X 4 *.p.p.p.p.p.p.p.p.[ O . a.a.a.a.a.a.",
"a.a.a.a.a.a.  _ p.p.p.p.p.p.p.p.p.p.! . : u.p.-.O q 6.p.p.p.p.p.p.p.p.p.p.Q   a.a.a.a.a.a.",
"a.a.a.a.a.  : y.p.p.p.p.p.p.p.p.p.p.p.~   Z t.5 < 4.p.p.p.p.p.p.p.p.p.p.p.y.;   a.a.a.a.a.",
"a.a.a.a.a.+ M p.p.p.p.p.p.p.p.p.p.p.p.p.S . c   ..p.p.p.p.p.p.p.p.p.p.p.p.p.z + a.a.a.a.a.",
"a.a.a.a.a.@ B p.p.p.p.p.p.p.p.p.p.p.p.p.w.2   s p.p.p.p.p.p.p.p.p.p.p.p.p.p.k X a.a.a.a.a.",
"a.a.a.a.a.. r p.p.p.p.p.p.p.p.p.p.p.p.p.p.m   A p.p.p.p.p.p.p.p.p.p.p.p.p.y.;   a.a.a.a.a.",
"a.a.a.a.a.a.  =.p.p.p.p.p.p.p.p.p.p.p.p.p.R   R p.p.p.p.p.p.p.p.p.p.p.p.p.^   a.a.a.a.a.a.",
"a.a.a.a.a.a.O 0 q.p.p.p.p.p.p.p.p.p.p.p.p.R   R p.p.p.p.p.p.p.p.p.p.p.p.>.& o a.a.a.a.a.a.",
"a.a.a.a.a.a.a.. l e.p.p.p.p.p.p.p.p.p.p.i.U   R p.p.p.p.p.p.p.p.p.p.p.<.3 o a.a.a.a.a.a.a.",
"a.a.a.a.a.a.a.a.  i 3.p.p.w.O.E v t >         @ : r N R #.u.p.p.p.p.%.> o a.a.a.a.a.a.a.a.",
"a.a.a.a.a.a.a.a.a.X - H n $   o 8 g C I E E E K C f 4 X   * b o.r.R + o a.a.a.a.a.a.a.a.a.",
"a.a.a.a.a.a.a.a.a.a..   = D ..8.p.p.p.p.p.p.p.p.p.p.p.0.} S ;   #   X a.a.a.a.a.a.a.a.a.a.",
"a.a.a.a.a.a.a.a.a.a.a.  o.p.p.p.p.p.p.p.p.p.p.p.p.p.p.p.p.p.e.P     a.a.a.a.a.a.a.a.a.a.a.",
"a.a.a.a.a.a.a.a.a.a.a.  +.p.9.@.( Y C v h s s h v C Y ( @.9.p.+.  a.a.a.a.a.a.a.a.a.a.a.a.",
"a.a.a.a.a.a.a.a.a.a.a.  x 6 .     X , 9 w y y w 9 , X     . 6 x   a.a.a.a.a.a.a.a.a.a.a.a.",
"a.a.a.a.a.a.a.a.a.a.a.  # j W | <.y.p.p.p.p.p.p.p.p.y.<.| W j #   a.a.a.a.a.a.a.a.a.a.a.a.",
"a.a.a.a.a.a.a.a.a.a.a.  X.p.p.y.;.{ ! L F V V F L ! { ;.y.p.p.X.  a.a.a.a.a.a.a.a.a.a.a.a.",
"a.a.a.a.a.a.a.a.a.a.a.  ` U p %       O * 1 1 * O       % p U `   a.a.a.a.a.a.a.a.a.a.a.a.",
"a.a.a.a.a.a.a.a.a.a.a.    + u K ] &.7.p.p.p.p.p.p.7.&.] K u +     a.a.a.a.a.a.a.a.a.a.a.a.",
"a.a.a.a.a.a.a.a.a.a.a.    7 ) 5.p.p.p.p.p.p.p.p.p.p.p.p.5.) 7   . a.a.a.a.a.a.a.a.a.a.a.a.",
"a.a.a.a.a.a.a.a.a.a.a.a.a.O   o y A ^  .$.:.:.$. .^ A y o   O a.a.a.a.a.a.a.a.a.a.a.a.a.a.",
"a.a.a.a.a.a.a.a.a.a.a.a.a.a.a.a.. o                 o . a.a.a.a.a.a.a.a.a.a.a.a.a.a.a.a.a.",
"a.a.a.a.a.a.a.a.a.a.a.a.a.a.a.a.a.a.a.a.a.a.a.a.a.a.a.a.a.a.a.a.a.a.a.a.a.a.a.a.a.a.a.a.a.",
"a.a.a.a.a.a.a.a.a.a.a.a.a.a.a.a.a.a.a.a.a.a.a.a.a.a.a.a.a.a.a.a.a.a.a.a.a.a.a.a.a.a.a.a.a.",
"a.a.a.a.a.a.a.a.a.a.a.a.a.a.a.a.a.a.a.a.a.a.a.a.a.a.a.a.a.a.a.a.a.a.a.a.a.a.a.a.a.a.a.a.a.",
"a.a.a.a.a.a.a.a.a.a.a.a.a.a.a.a.a.a.a.a.a.a.a.a.a.a.a.a.a.a.a.a.a.a.a.a.a.a.a.a.a.a.a.a.a.",
"a.a.a.a.a.a.a.a.a.a.a.a.a.a.a.a.a.a.a.a.a.a.a.a.a.a.a.a.a.a.a.a.a.a.a.a.a.a.a.a.a.a.a.a.a."
};
