/* XPM */
static char *wn[] = {
/* columns rows colors chars-per-pixel */
"45 45 109 2",
"   c black",
".  c #010101",
"X  c #020202",
"o  c gray1",
"O  c #040404",
"+  c gray2",
"@  c #060606",
"#  c gray3",
"$  c #090909",
"%  c gray4",
"&  c #0C0C0C",
"*  c gray5",
"=  c #0E0E0E",
"-  c gray6",
";  c gray7",
":  c #131313",
">  c #151515",
",  c gray9",
"<  c #191919",
"1  c gray10",
"2  c gray11",
"3  c #1D1D1D",
"4  c #1E1E1E",
"5  c #202020",
"6  c gray13",
"7  c #232323",
"8  c gray14",
"9  c #252525",
"0  c #272727",
"q  c #2D2D2D",
"w  c gray18",
"e  c #313131",
"r  c gray20",
"t  c #343434",
"y  c #353535",
"u  c gray21",
"i  c #3E3E3E",
"p  c #3F3F3F",
"a  c gray25",
"s  c #444444",
"d  c #494949",
"f  c #4E4E4E",
"g  c gray31",
"h  c #515151",
"j  c gray32",
"k  c #535353",
"l  c #555555",
"z  c #606060",
"x  c #656565",
"c  c gray40",
"v  c #676767",
"b  c #6A6A6A",
"n  c #6D6D6D",
"m  c #717171",
"M  c #727272",
"N  c #777777",
"B  c #7E7E7E",
"V  c #7F7F7F",
"C  c #808080",
"Z  c gray53",
"A  c #888888",
"S  c #898989",
"D  c gray54",
"F  c #8B8B8B",
"G  c #909090",
"H  c gray57",
"J  c #939393",
"K  c gray59",
"L  c #979797",
"P  c #989898",
"I  c #9B9B9B",
"U  c #9D9D9D",
"Y  c #A0A0A0",
"T  c #A2A2A2",
"R  c gray70",
"E  c #B4B4B4",
"W  c gray71",
"Q  c #B7B7B7",
"!  c gray72",
"~  c #B9B9B9",
"^  c gray75",
"/  c gray76",
"(  c #CACACA",
")  c #CECECE",
"_  c gray81",
"`  c #D0D0D0",
"'  c gray83",
"]  c gray84",
"[  c gray86",
"{  c gainsboro",
"}  c gray88",
"|  c #E4E4E4",
" . c gray90",
".. c #E6E6E6",
"X. c #E9E9E9",
"o. c #EAEAEA",
"O. c #ECECEC",
"+. c gray93",
"@. c #EFEFEF",
"#. c gray94",
"$. c gray96",
"%. c #F6F6F6",
"&. c #F9F9F9",
"*. c gray98",
"=. c gray99",
"-. c #FDFDFD",
";. c #FEFEFE",
":. c gray100",
">. c None",
/* pixels */
">.>.>.>.>.>.>.>.>.>.>.>.>.>.>.>.>.>.>.>.>.>.>.>.>.>.>.>.>.>.>.>.>.>.>.>.>.>.>.>.>.>.>.>.>.",
">.>.>.>.>.>.>.>.>.>.>.>.>.>.>.>.>.>.>.>.>.>.>.>.>.>.>.>.>.>.>.>.>.>.>.>.>.>.>.>.>.>.>.>.>.",
">.>.>.>.>.>.>.>.>.>.>.>.>.>.>.>.>.>.>.>.>.>.>.>.>.>.>.>.>.>.>.>.>.>.>.>.>.>.>.>.>.>.>.>.>.",
">.>.>.>.>.>.>.>.>.>.>.>.>.>.>.>.>.>.>.>.>.>.>.>.>.>.>.>.>.>.>.>.>.>.>.>.>.>.>.>.>.>.>.>.>.",
">.>.>.>.>.>.>.>.>.>.>.>.>.>.>.>.>.>.>.>.>.>.>.>.>.>.>.>.>.>.>.>.>.>.>.>.>.>.>.>.>.>.>.>.>.",
">.>.>.>.>.>.>.>.>.>.>.>.>.>.>.>.>.>.>.>.>.>.>.>.>.>.>.>.>.>.>.>.>.>.>.>.>.>.>.>.>.>.>.>.>.",
">.>.>.>.>.>.>.>.>.>.>.>.>.>.>.>.>.>.>.>.    >.>.>.>.>.>.>.>.>.>.>.>.>.>.>.>.>.>.>.>.>.>.>.",
">.>.>.>.>.>.>.>.>.>.>.>.>.      >.>.>.o     >.>.>.>.>.>.>.>.>.>.>.>.>.>.>.>.>.>.>.>.>.>.>.",
">.>.>.>.>.>.>.>.>.>.>.>.>.  q   >.>.    I >   >.>.>.>.>.>.>.>.>.>.>.>.>.>.>.>.>.>.>.>.>.>.",
">.>.>.>.>.>.>.>.>.>.>.>.>.  T p       z :.r     >.>.>.>.>.>.>.>.>.>.>.>.>.>.>.>.>.>.>.>.>.",
">.>.>.>.>.>.>.>.>.>.>.>.>.  h } g s g | :.P 0 $     .   >.>.>.>.>.>.>.>.>.>.>.>.>.>.>.>.>.",
">.>.>.>.>.>.>.>.>.>.>.>.>.. A :.:.:.:.:.:.:.:.:.] S w . .   >.>.>.>.>.>.>.>.>.>.>.>.>.>.>.",
">.>.>.>.>.>.>.>.>.>.>.>.. = O.:.:.:.:.:.:.:.:.:.:.:.:...d   X >.>.>.>.>.>.>.>.>.>.>.>.>.>.",
">.>.>.>.>.>.>.>.>.>.>.    Y Q U :.:.:.:.:.:.:.:.:.:.:.:.:.W @ . >.>.>.>.>.>.>.>.>.>.>.>.>.",
">.>.>.>.>.>.>.>.>.>.>.. l E     %.:.:.:.:.:.:.:.:.:.:.:.:.:.{ $ . >.>.>.>.>.>.>.>.>.>.>.>.",
">.>.>.>.>.>.>.>.>.>.. = O.6   7 :.:.:.:.:.:.:.:.:.:.:.:.:.:.:.) O o >.>.>.>.>.>.>.>.>.>.>.",
">.>.>.>.>.>.>.>.>.>.  G $.    W :.:.:.:.:.:.:.:.:.:.:.:.:.:.:.:.D X X >.>.>.>.>.>.>.>.>.>.",
">.>.>.>.>.>.>.>.>.O 9 *.:.U ! :.:.:.:.:.:.:.:.G L :.:.:.:.:.:.:.;.5   >.>.>.>.>.>.>.>.>.>.",
">.>.>.>.>.>.>.>.>.  E :.:.:.:.:.:.:.:.:.:.:.:.w g :.:.:.:.:.:.:.:.R $ O >.>.>.>.>.>.>.>.>.",
">.>.>.>.>.>.>.>.o s :.:.:.:.:.:.:.:.:.:.:.:.} O F :.:.:.:.:.:.:.:.;.< . >.>.>.>.>.>.>.>.>.",
">.>.>.>.>.>.>.>.. ( :.:.:.:.:.:.:.:.:.:.:.=.p o #.:.:.:.:.:.:.:.:.:.V @   >.>.>.>.>.>.>.>.",
">.>.>.>.>.>.>.o f :.:.:.:.:.:.:.:.:.:.:.:.b     :.:.:.:.:.:.:.:.:.:.[ * + >.>.>.>.>.>.>.>.",
">.>.>.>.>.>.  . ` :.:.:.:.:.:.:.:.:.:.;.M     X :.:.:.:.:.:.:.:.:.:.:.,   >.>.>.>.>.>.>.>.",
">.>.>.>.>.>.o j :.:.:.:.:.:.:.:.:.:.%.k       1 :.:.:.:.:.:.:.:.:.:.:.z . >.>.>.>.>.>.>.>.",
">.>.>.>.>.>.  / N N ;.:.:.:.:.:.:. .t . >.>.o a :.:.:.:.:.:.:.:.:.:.:.U -   >.>.>.>.>.>.>.",
">.>.>.>.>.  3 [     [ :.:.:.:.:.E ; X >.>.>.X B :.:.:.:.:.:.:.:.:.:.:.) : O >.>.>.>.>.>.>.",
">.>.>.>.>.  r ;.N N ;.:.:.:.*.m . O >.>.>.>.  _ :.:.:.:.:.:.:.:.:.:.:.*.O   >.>.>.>.>.>.>.",
">.>.>.>.>.  1 :.:.-.x v -.$.i     >.>.>.>.O u :.:.:.:.:.:.:.:.:.:.:.:.:.>   >.>.>.>.>.>.>.",
">.>.>.>.>.>.  ^ :.'     ..j . >.>.>.>.>.    ~ :.:.:.:.:.:.:.:.:.:.:.:.:.y   >.>.>.>.>.>.>.",
">.>.>.>.>.>.O # g -   - C   >.>.>.>.>.>.  c :.:.:.:.:.:.:.:.:.:.:.:.:.:.k   >.>.>.>.>.>.>.",
">.>.>.>.>.>.>.  O o         >.>.>.>.>.X i &.:.:.:.:.:.:.:.:.:.:.:.:.:.:.n o   >.>.>.>.>.>.",
">.>.>.>.>.>.>.>.>.>.    >.>.>.>.>.>.. e +.:.:.:.:.:.:.:.:.:.:.:.:.:.:.:.B &   >.>.>.>.>.>.",
">.>.>.>.>.>.>.>.>.>.>.>.>.>.>.>.>.X r @.:.:.:.:.:.:.:.:.:.:.:.:.:.:.:.:.Z :   >.>.>.>.>.>.",
">.>.>.>.>.>.>.>.>.>.>.>.>.>.>.>.o 6 o.:.:.:.:.:.:.:.:.:.:.:.:.:.:.:.:.:.H >   >.>.>.>.>.>.",
">.>.>.>.>.>.>.>.>.>.>.>.>.>.>.X % [ :.:.:.:.:.:.:.:.:.:.:.:.:.:.:.:.:.:.K <   >.>.>.>.>.>.",
">.>.>.>.>.>.>.>.>.>.>.>.>.>.>.X F :.:.:.:.:.:.:.:.:.:.:.:.:.:.:.:.:.:.:.K 1   >.>.>.>.>.>.",
">.>.>.>.>.>.>.>.>.>.>.>.>.>.>.  X.:.:.:.:.:.:.:.:.:.:.:.:.:.:.:.:.:.:.:.J <   >.>.>.>.>.>.",
">.>.>.>.>.>.>.>.>.>.>.>.>.>.  4 :.:.:.:.:.:.:.:.:.:.:.:.:.:.:.:.:.:.:.:.Z 2   >.>.>.>.>.>.",
">.>.>.>.>.>.>.>.>.>.>.>.>.>.    s s s s s s s s s s s s s s s s s s s s 8     >.>.>.>.>.>.",
">.>.>.>.>.>.>.>.>.>.>.>.>.>.                                                  >.>.>.>.>.>.",
">.>.>.>.>.>.>.>.>.>.>.>.>.>.>.>.>.>.>.>.>.>.>.>.>.>.>.>.>.>.>.>.>.>.>.>.>.>.>.>.>.>.>.>.>.",
">.>.>.>.>.>.>.>.>.>.>.>.>.>.>.>.>.>.>.>.>.>.>.>.>.>.>.>.>.>.>.>.>.>.>.>.>.>.>.>.>.>.>.>.>.",
">.>.>.>.>.>.>.>.>.>.>.>.>.>.>.>.>.>.>.>.>.>.>.>.>.>.>.>.>.>.>.>.>.>.>.>.>.>.>.>.>.>.>.>.>.",
">.>.>.>.>.>.>.>.>.>.>.>.>.>.>.>.>.>.>.>.>.>.>.>.>.>.>.>.>.>.>.>.>.>.>.>.>.>.>.>.>.>.>.>.>.",
">.>.>.>.>.>.>.>.>.>.>.>.>.>.>.>.>.>.>.>.>.>.>.>.>.>.>.>.>.>.>.>.>.>.>.>.>.>.>.>.>.>.>.>.>."
};
