/* XPM */
static char *wp[] = {
/* columns rows colors chars-per-pixel */
"45 45 40 1",
"  c black",
". c #010101",
"X c gray1",
"o c #040404",
"O c gray2",
"+ c #111111",
"@ c #232323",
"# c #282828",
"$ c gray17",
"% c gray19",
"& c #313131",
"* c gray22",
"= c #4C4C4C",
"- c gray34",
"; c #5A5A5A",
": c #606060",
"> c gray39",
", c DimGray",
"< c #727272",
"1 c #7B7B7B",
"2 c #7C7C7C",
"3 c #818181",
"4 c gray51",
"5 c gray53",
"6 c #8B8B8B",
"7 c gray61",
"8 c #AEAEAE",
"9 c #B1B1B1",
"0 c #BBBBBB",
"q c gray75",
"w c gray81",
"e c #D0D0D0",
"r c LightGray",
"t c gray90",
"y c #E9E9E9",
"u c #FBFBFB",
"i c gray99",
"p c #FEFEFE",
"a c gray100",
"s c None",
/* pixels */
"sssssssssssssssssssssssssssssssssssssssssssss",
"sssssssssssssssssssssssssssssssssssssssssssss",
"sssssssssssssssssssssssssssssssssssssssssssss",
"sssssssssssssssssssssssssssssssssssssssssssss",
"sssssssssssssssssssssssssssssssssssssssssssss",
"sssssssssssssssssssssssssssssssssssssssssssss",
"sssssssssssssssssssssssssssssssssssssssssssss",
"sssssssssssssssssssssssssssssssssssssssssssss",
"sssssssssssssssssssss  ssssssssssssssssssssss",
"sssssssssssssssssssXX&&XXssssssssssssssssssss",
"ssssssssssssssssssX@eaae@Xsssssssssssssssssss",
"ssssssssssssssssssXwaaaawXsssssssssssssssssss",
"sssssssssssssssss %aaaaaa% ssssssssssssssssss",
"sssssssssssssssss #aaaaaa# ssssssssssssssssss",
"ssssssssssssssssss raaaar sssssssssssssssssss",
"sssssssssssssssss  >aaaa>  ssssssssssssssssss",
"ssssssssssssssss .1iaaaai1. sssssssssssssssss",
"ssssssssssssssss 2aaaaaaaa2 sssssssssssssssss",
"sssssssssssssssX#iaaaaaaaai#Xssssssssssssssss",
"sssssssssssssss.5aaaaaaaaaa5.ssssssssssssssss",
"sssssssssssssss 8aaaaaaaaaa8 ssssssssssssssss",
"sssssssssssssss 9aaaaaaaaaa9 ssssssssssssssss",
"sssssssssssssss.6aaaaaaaaaa6.ssssssssssssssss",
"sssssssssssssssX$iaaaaaaaai$Xssssssssssssssss",
"ssssssssssssssss 4aaaaaaaa4 sssssssssssssssss",
"ssssssssssssssss  5aaaaaa5  sssssssssssssssss",
"ssssssssssssssss. :taaaat: .sssssssssssssssss",
"ssssssssssssss  -yaaaaaaaay-  sssssssssssssss",
"sssssssssssss  3aaaaaaaaaaaa3  ssssssssssssss",
"sssssssssssss <aaaaaaaaaaaaaa< ssssssssssssss",
"sssssssssssso*uaaaaaaaaaaaaaau*osssssssssssss",
"ssssssssssss.eaaaaaaaaaaaaaaaae.sssssssssssss",
"sssssssssssO;aaaaaaaaaaaaaaaaaa;Ossssssssssss",
"sssssssssss qaaaaaaaaaaaaaaaaaaq ssssssssssss",
"ssssssssss +paaaaaaaaaaaaaaaaaap+ sssssssssss",
"sssssssssso=aaaaaaaaaaaaaaaaaaaa=osssssssssss",
"ssssssssss.3aaaaaaaaaaaaaaaaaaaa3.sssssssssss",
"ssssssssss 7aaaaaaaaaaaaaaaaaaaa7 sssssssssss",
"ssssssssss ,00000000000000000000, sssssssssss",
"ssssssssss                        sssssssssss",
"sssssssssssssssssssssssssssssssssssssssssssss",
"sssssssssssssssssssssssssssssssssssssssssssss",
"sssssssssssssssssssssssssssssssssssssssssssss",
"sssssssssssssssssssssssssssssssssssssssssssss",
"sssssssssssssssssssssssssssssssssssssssssssss"
};
