/* XPM */
static char *wq[] = {
/* columns rows colors chars-per-pixel */
"45 45 130 2",
"   c black",
".  c #010101",
"X  c #020202",
"o  c gray1",
"O  c #040404",
"+  c gray2",
"@  c #060606",
"#  c #070707",
"$  c gray3",
"%  c #090909",
"&  c gray4",
"*  c gray5",
"=  c #0E0E0E",
"-  c gray6",
";  c #111111",
":  c gray7",
">  c #131313",
",  c #161616",
"<  c gray9",
"1  c #191919",
"2  c gray10",
"3  c #1B1B1B",
"4  c gray11",
"5  c #1D1D1D",
"6  c #1E1E1E",
"7  c gray12",
"8  c #202020",
"9  c #222222",
"0  c #252525",
"q  c gray15",
"w  c #272727",
"e  c gray16",
"r  c #2A2A2A",
"t  c gray17",
"y  c gray19",
"u  c #313131",
"i  c #323232",
"p  c gray20",
"a  c #353535",
"s  c gray21",
"d  c #373737",
"f  c gray23",
"g  c #3C3C3C",
"h  c gray24",
"j  c #3E3E3E",
"k  c #3F3F3F",
"l  c #434343",
"z  c #444444",
"x  c gray27",
"c  c #464646",
"v  c gray28",
"b  c #494949",
"n  c gray29",
"m  c #4C4C4C",
"M  c gray31",
"N  c #535353",
"B  c #555555",
"V  c gray35",
"C  c gray36",
"Z  c #626262",
"A  c gray39",
"S  c #656565",
"D  c gray40",
"F  c #6A6A6A",
"G  c gray43",
"H  c #717171",
"J  c #777777",
"K  c gray47",
"L  c #797979",
"P  c gray49",
"I  c #7E7E7E",
"U  c #818181",
"Y  c #848484",
"T  c gray52",
"R  c #898989",
"E  c gray55",
"W  c gray58",
"Q  c #959595",
"!  c #979797",
"~  c #989898",
"^  c gray60",
"/  c #9A9A9A",
"(  c #9B9B9B",
")  c gray61",
"_  c #9D9D9D",
"`  c gray62",
"'  c #A2A2A2",
"]  c gray65",
"[  c gray66",
"{  c #A9A9A9",
"}  c #AAAAAA",
"|  c #ACACAC",
" . c gray70",
".. c #B6B6B6",
"X. c #BBBBBB",
"o. c #BCBCBC",
"O. c #C0C0C0",
"+. c #C1C1C1",
"@. c #C3C3C3",
"#. c gray79",
"$. c gray80",
"%. c #CECECE",
"&. c #D2D2D2",
"*. c gray83",
"=. c #D5D5D5",
"-. c gray84",
";. c #D7D7D7",
":. c #D8D8D8",
">. c gray85",
",. c #DADADA",
"<. c gainsboro",
"1. c #DDDDDD",
"2. c #DFDFDF",
"3. c #E4E4E4",
"4. c #E6E6E6",
"5. c #E7E7E7",
"6. c #EAEAEA",
"7. c gray93",
"8. c #EEEEEE",
"9. c gray95",
"0. c #F4F4F4",
"q. c gray96",
"w. c gray97",
"e. c #F8F8F8",
"r. c #F9F9F9",
"t. c gray98",
"y. c #FDFDFD",
"u. c #FEFEFE",
"i. c gray100",
"p. c None",
/* pixels */
"p.p.p.p.p.p.p.p.p.p.p.p.p.p.p.p.p.p.p.p.p.p.p.p.p.p.p.p.p.p.p.p.p.p.p.p.p.p.p.p.p.p.p.p.p.",
"p.p.p.p.p.p.p.p.p.p.p.p.p.p.p.p.p.p.p.p.p.p.p.p.p.p.p.p.p.p.p.p.p.p.p.p.p.p.p.p.p.p.p.p.p.",
"p.p.p.p.p.p.p.p.p.p.p.p.p.p.p.p.p.p.p.p.p.p.p.p.p.p.p.p.p.p.p.p.p.p.p.p.p.p.p.p.p.p.p.p.p.",
"p.p.p.p.p.p.p.p.p.p.p.p.p.p.p.p.p.p.p.p.p.p.p.p.p.p.p.p.p.p.p.p.p.p.p.p.p.p.p.p.p.p.p.p.p.",
"p.p.p.p.p.p.p.p.p.p.p.p.p.p.p.p.p.p.p.p.p.p.p.p.p.p.p.p.p.p.p.p.p.p.p.p.p.p.p.p.p.p.p.p.p.",
"p.p.p.p.p.p.p.p.p.p.p.p.p.p.p.p.p.p.p.p.p.o   o p.p.p.p.p.p.p.p.p.p.p.p.p.p.p.p.p.p.p.p.p.",
"p.p.p.p.p.p.p.p.p.p.p.p.o     o p.p.p.p.o k  .j X p.p.p.p.p.    p.p.p.p.p.p.p.p.p.p.p.p.p.",
"p.p.p.p.p.p.p.p.p.p.p.p.o Q W X p.p.p.p.   .i. .  p.p.p.p.  2 2   p.p.p.p.p.p.p.p.p.p.p.p.",
"p.p.p.p.p.p.p.p.p.p.p.  i i.i.i   p.p.p.X j ~ g o p.p.p.  3 w.w.2   p.p.p.p.p.p.p.p.p.p.p.",
"p.p.p.p.p.    p.p.p.p.p.o R R X p.p.p.p.p.X   X p.p.p.p.  2 w.q.2   p.p.p.p.    p.p.p.p.p.",
"p.p.p.p.  2 2   p.p.p.p.o     o p.p.p.p.p.      p.p.p.p.p.  - - . p.p.p.p.  2 2   p.p.p.p.",
"p.p.p.  3 w.w.2   p.p.p.p.    p.p.p.p.p.p.      p.p.p.p.p.p.    p.p.p.p.  3 w.w.2   p.p.p.",
"p.p.p.  2 w.q.2   p.p.p.p.      p.p.p.p.p.o   o p.p.p.p.p.p.    p.p.p.p.  2 w.q.2   p.p.p.",
"p.p.p.p.  2 - . p.p.p.p.p.    X p.p.p.p.p.  >   p.p.p.p.p.O     p.p.p.p.p.  - 1 . p.p.p.p.",
"p.p.p.p.p.      p.p.p.p.p.      p.p.p.p.p.  L   p.p.p.p.p.      p.p.p.p.p.      p.p.p.p.p.",
"p.p.p.p.p.p.    X p.p.p.p.  g 0 o p.p.p.p.  1.  p.p.p.p.  * i   p.p.p.p.X     p.p.p.p.p.p.",
"p.p.p.p.p.p.p.    p.p.p.p.  g E   p.p.p.  8 i.8   p.p.p.X G g   p.p.p.p.    p.p.p.p.p.p.p.",
"p.p.p.p.p.p.p.    X p.p.p.  g 6.+   p.p.o B i.B o p.p.p.  =.g   p.p.p.X     p.p.p.p.p.p.p.",
"p.p.p.p.p.p.p.. D = o p.p.  g i.B o p.p.  R i.R   p.p.o h i.g   p.p.o = D . p.p.p.p.p.p.p.",
"p.p.p.p.p.p.p.O N )   p.p.  g i.X.  p.p.  o.i.o.  p.p.  ] i.g   p.p.  ) N O p.p.p.p.p.p.p.",
"p.p.p.p.p.p.p.  0 u.j o p.  g i.y.6 . p.  8.i.8.  p.. : r.i.g   p.o j u.0   p.p.p.p.p.p.p.",
"p.p.p.p.p.p.p.  o r.>.@     g i.i.Y     8 i.i.i.8   . J i.i.g     @ >.r.o   p.p.p.p.p.p.p.",
"p.p.p.p.p.p.p.p.  &.i.T     g i.i.3.o   B i.i.i.B   . 1.i.i.g     T i.&.  p.p.p.p.p.p.p.p.",
"p.p.p.p.p.p.p.p.  [ i.t.t   y i.i.i.f   T i.i.i.T   s i.i.i.y   t t.i.[   p.p.p.p.p.p.p.p.",
"p.p.p.p.p.p.p.p.. P t.O.Z     y q 4     o & % $ o     : 3 0     M { 8.P . p.p.p.p.p.p.p.p.",
"p.p.p.p.p.p.p.p.. o .         ; 6 e u l n B C B n l u e 5 ;         . o . p.p.p.p.p.p.p.p.",
"p.p.p.p.p.p.p.p.    K ` @.2.e.i.i.i.i.i.i.i.i.i.i.i.i.i.i.i.e.2.@.` K     p.p.p.p.p.p.p.p.",
"p.p.p.p.p.p.p.p.p.  R i.i.i.i.i.i.i.i.i.i.i.i.i.i.i.i.i.i.i.i.i.i.i.R   p.p.p.p.p.p.p.p.p.",
"p.p.p.p.p.p.p.p.p.X   ' i.i.i.t.8.6.1.1.%.$.$.$.%.1.1.6.8.t.i.i.i.'   X p.p.p.p.p.p.p.p.p.",
"p.p.p.p.p.p.p.p.p.p.o O x r > $ , 9 9 p p j z j p p 9 9 , $ > r c O o p.p.p.p.p.p.p.p.p.p.",
"p.p.p.p.p.p.p.p.p.p.p.X y ;.9.i.i.i.i.i.i.i.i.i.i.i.i.i.i.i.9.;.y X p.p.p.p.p.p.p.p.p.p.p.",
"p.p.p.p.p.p.p.p.p.p.p.  . 0.i.i.i.i.i.i.i.i.i.i.i.i.i.i.i.i.i.0..   p.p.p.p.p.p.p.p.p.p.p.",
"p.p.p.p.p.p.p.p.p.p.p.  % *.../ I F D V B v z v B V D F I / ..*.%   p.p.p.p.p.p.p.p.p.p.p.",
"p.p.p.p.p.p.p.p.p.p.p.    t b S U ^ ( } | X.X.X.| } ( ^ U S b t o   p.p.p.p.p.p.p.p.p.p.p.",
"p.p.p.p.p.p.p.p.p.p.O 2 ,.i.i.9.8.2.1.*.$.#.+.$.$.<.1.5.8.t.i.i.-.-   p.p.p.p.p.p.p.p.p.p.",
"p.p.p.p.p.p.p.p.p.p.  d a 3 # * , 9 9 u p g z p p e 9 6 ; + : w x 7   p.p.p.p.p.p.p.p.p.p.",
"p.p.p.p.p.p.p.p.p.  $ ! #.3.e.i.i.i.i.i.i.i.i.i.i.i.i.i.i.i.7.:...m   p.p.p.p.p.p.p.p.p.p.",
"p.p.p.p.p.p.p.p.p.. 3 X.4.y.i.i.i.i.i.i.i.i.i.i.i.i.i.i.i.i.i.y.4._   p.p.p.p.p.p.p.p.p.p.",
"p.p.p.p.p.p.p.p.p.p.      o < a M B A D H J K J H D A B M a < o     X p.p.p.p.p.p.p.p.p.p.",
"p.p.p.p.p.p.p.p.p.p.p.p.p.      O o @ o o .   . o o @ o O       p.p.p.p.p.p.p.p.p.p.p.p.p.",
"p.p.p.p.p.p.p.p.p.p.p.p.p.p.p.p.p.p.p.p.p.p.p.p.p.p.p.p.p.p.p.p.p.p.p.p.p.p.p.p.p.p.p.p.p.",
"p.p.p.p.p.p.p.p.p.p.p.p.p.p.p.p.p.p.p.p.p.p.p.p.p.p.p.p.p.p.p.p.p.p.p.p.p.p.p.p.p.p.p.p.p.",
"p.p.p.p.p.p.p.p.p.p.p.p.p.p.p.p.p.p.p.p.p.p.p.p.p.p.p.p.p.p.p.p.p.p.p.p.p.p.p.p.p.p.p.p.p.",
"p.p.p.p.p.p.p.p.p.p.p.p.p.p.p.p.p.p.p.p.p.p.p.p.p.p.p.p.p.p.p.p.p.p.p.p.p.p.p.p.p.p.p.p.p.",
"p.p.p.p.p.p.p.p.p.p.p.p.p.p.p.p.p.p.p.p.p.p.p.p.p.p.p.p.p.p.p.p.p.p.p.p.p.p.p.p.p.p.p.p.p."
};
