/* XPM */
static char *wr[] = {
/* columns rows colors chars-per-pixel */
"45 45 18 1",
"  c black",
". c gray1",
"X c #0C0C0C",
"o c #111111",
"O c gray7",
"+ c gray10",
"@ c gray16",
"# c #343434",
"$ c #3C3C3C",
"% c #444444",
"& c gray44",
"* c #777777",
"= c #888888",
"- c #989898",
"; c #B9B9B9",
": c #BBBBBB",
"> c gray100",
", c None",
/* pixels */
",,,,,,,,,,,,,,,,,,,,,,,,,,,,,,,,,,,,,,,,,,,,,",
",,,,,,,,,,,,,,,,,,,,,,,,,,,,,,,,,,,,,,,,,,,,,",
",,,,,,,,,,,,,,,,,,,,,,,,,,,,,,,,,,,,,,,,,,,,,",
",,,,,,,,,,,,,,,,,,,,,,,,,,,,,,,,,,,,,,,,,,,,,",
",,,,,,,,,,,,,,,,,,,,,,,,,,,,,,,,,,,,,,,,,,,,,",
",,,,,,,,,,,,,,,,,,,,,,,,,,,,,,,,,,,,,,,,,,,,,",
",,,,,,,,,,,,,,,,,,,,,,,,,,,,,,,,,,,,,,,,,,,,,",
",,,,,,,,,,,,,,,,,,,,,,,,,,,,,,,,,,,,,,,,,,,,,",
",,,,,,,,,,,    ,,,,,     ,,,,,    ,,,,,,,,,,,",
",,,,,,,,,,  %%  ,,,  %%%  ,,,  %%  ,,,,,,,,,,",
",,,,,,,,,, $>>$     $>>>$     $>>$ ,,,,,,,,,,",
",,,,,,,,,, $>>-%%%%%->>>-%%%%%->>$ ,,,,,,,,,,",
",,,,,,,,,, $>>>>>>>>>>>>>>>>>>>>>$ ,,,,,,,,,,",
",,,,,,,,,, o=====================o ,,,,,,,,,,",
",,,,,,,,,,  #*******************#  ,,,,,,,,,,",
",,,,,,,,,,,  &>>>>>>>>>>>>>>>>>&  ,,,,,,,,,,,",
",,,,,,,,,,,,   %%%%%%%%%%%%%%%   ,,,,,,,,,,,,",
",,,,,,,,,,,,, $>>>>>>>>>>>>>>>$ ,,,,,,,,,,,,,",
",,,,,,,,,,,,, $>>>>>>>>>>>>>>>$ ,,,,,,,,,,,,,",
",,,,,,,,,,,,, $>>>>>>>>>>>>>>>$ ,,,,,,,,,,,,,",
",,,,,,,,,,,,, $>>>>>>>>>>>>>>>$ ,,,,,,,,,,,,,",
",,,,,,,,,,,,, $>>>>>>>>>>>>>>>$ ,,,,,,,,,,,,,",
",,,,,,,,,,,,, $>>>>>>>>>>>>>>>$ ,,,,,,,,,,,,,",
",,,,,,,,,,,,, $>>>>>>>>>>>>>>>$ ,,,,,,,,,,,,,",
",,,,,,,,,,,,, $>>>>>>>>>>>>>>>$ ,,,,,,,,,,,,,",
",,,,,,,,,,,,, $>>>>>>>>>>>>>>>$ ,,,,,,,,,,,,,",
",,,,,,,,,,,,, $>>>>>>>>>>>>>>>$ ,,,,,,,,,,,,,",
",,,,,,,,,,,,, $>>>>>>>>>>>>>>>$ ,,,,,,,,,,,,,",
",,,,,,,,,,,,, @:::::::::::::::@ ,,,,,,,,,,,,,",
",,,,,,,,,,,,,.@***************+.,,,,,,,,,,,,,",
",,,,,,,,,,,,, ;>>>>>>>>>>>>>>>; ,,,,,,,,,,,,,",
",,,,,,,,,,,,  %%%%%%%%%%%%%%%%%  ,,,,,,,,,,,,",
",,,,,,,,,,,  XOOOOOOOOOOOOOOOOOX  ,,,,,,,,,,,",
",,,,,,,,,,, $>>>>>>>>>>>>>>>>>>>$ ,,,,,,,,,,,",
",,,,,,,,,,, $>>>>>>>>>>>>>>>>>>>$ ,,,,,,,,,,,",
",,,,,,,,,    %%%%%%%%%%%%%%%%%%%    ,,,,,,,,,",
",,,,,,,,  %@OOOOOOOOOOOOOOOOOOOOO@%  ,,,,,,,,",
",,,,,,,, $>>>>>>>>>>>>>>>>>>>>>>>>>$ ,,,,,,,,",
",,,,,,,,  %%%%%%%%%%%%%%%%%%%%%%%%%  ,,,,,,,,",
",,,,,,,,,                           ,,,,,,,,,",
",,,,,,,,,,,,,,,,,,,,,,,,,,,,,,,,,,,,,,,,,,,,,",
",,,,,,,,,,,,,,,,,,,,,,,,,,,,,,,,,,,,,,,,,,,,,",
",,,,,,,,,,,,,,,,,,,,,,,,,,,,,,,,,,,,,,,,,,,,,",
",,,,,,,,,,,,,,,,,,,,,,,,,,,,,,,,,,,,,,,,,,,,,",
",,,,,,,,,,,,,,,,,,,,,,,,,,,,,,,,,,,,,,,,,,,,,"
};
